<?xml version="1.0" encoding="UTF-8"?>
<!DOCTYPE svg PUBLIC "-//W3C//DTD SVG 1.1//EN" "http://www.w3.org/Graphics/SVG/1.1/DTD/svg11.dtd">
<!-- Creator: CorelDRAW 2019 (64-Bit) -->
<svg xmlns="http://www.w3.org/2000/svg" xml:space="preserve" width="165.566mm" height="199.89mm" version="1.1" style="shape-rendering:geometricPrecision; text-rendering:geometricPrecision; image-rendering:optimizeQuality; fill-rule:evenodd; clip-rule:evenodd"
viewBox="0 0 165.4717 199.7758"
 xmlns:xlink="http://www.w3.org/1999/xlink"
 xmlns:xodm="http://www.corel.com/coreldraw/odm/2003">
 <defs>
  <style type="text/css">
   <![CDATA[
    .fil0 {fill:#1C418A}
    .fil1 {fill:#FDB926}
   ]]>
  </style>
 </defs>
 <g id="Layer_x0020_1">
  <metadata id="CorelCorpID_0Corel-Layer"/>
  <g id="_697655088">
   <polygon class="fil0" points="84.8555,8.0104 78.8216,0 74.6954,0 74.6954,0.7631 75.666,1.4568 75.666,13.2116 78.8216,13.2116 78.8216,5.2719 84.8902,13.2116 88.0106,13.2116 88.0106,0 84.8555,0 "/>
   <polygon class="fil0" points="62.7666,15.2232 71.8168,13.6278 71.3659,10.9225 65.5749,11.9283 65.124,9.3978 69.8397,8.5654 69.6323,7.3862 69.3548,5.8601 64.6383,6.6925 64.2228,4.2993 69.4929,3.399 69.7363,0.555 61.1712,2.081 60.4774,2.1851 59.5405,2.3585 59.6799,3.1215 60.7203,3.6403 "/>
   <path class="fil0" d="M47.7162 20.1482l4.6465 -1.6994c4.3001,-1.5608 5.9645,-5.0985 4.6472,-8.7388 -1.3181,-3.6417 -4.8552,-5.2705 -9.1896,-3.7112l-4.0922 1.4914 -0.5202 0.1734 -1.0406 0.3815 0.2774 0.7284 1.318 0.3815 3.9534 10.9932zm-0.4509 -10.9932l0 0 1.6643 -0.5896c1.6995,-0.6243 3.9882,-0.3815 4.9592,2.3238 0.9706,2.6692 -0.6242,4.334 -2.3237,4.9583l-1.6644 0.5897 -2.6354 -7.2821z"/>
   <polygon class="fil0" points="35.7873,26.7006 43.9708,21.9504 43.1731,19.073 37.2087,22.5053 32.0768,13.5931 29.9264,14.8071 29.1986,15.2579 28.4703,15.6741 28.8517,16.3331 29.8922,16.4371 "/>
   <path class="fil0" d="M27.7419 23.7192c-2.462,-2.844 -6.6235,-3.3296 -9.8832,-0.4855 -3.2597,2.844 -3.3638,7.0046 -0.9013,9.8487 2.462,2.8427 6.623,3.3629 9.8827,0.5202 3.2943,-2.844 3.3984,-7.0407 0.9018,-9.8834zm-8.1836 7.1434l0 0c-1.5261,-1.7689 -1.5261,-3.9538 0.2081,-5.4439 1.6989,-1.4913 3.9182,-1.2139 5.4443,0.555 1.5253,1.7327 1.5253,3.9871 -0.2083,5.4785 -1.7341,1.4914 -3.9533,1.1446 -5.4441,-0.5896z"/>
   <path class="fil0" d="M14.3561 34.9206l-2.6007 3.3282 -0.6935 0.8671 -1.1095 1.422 2.0806 1.6301 2.0804 -2.6359c0.6161,1.2611 0.44,2.7649 -0.4504,3.8484 -1.4219,1.8036 -3.6412,1.9076 -5.4447,0.4856 -1.8376,-1.4221 -2.2539,-3.6057 -0.8318,-5.4092 0.2158,-0.2677 0.4601,-0.5119 0.7278,-0.7284 0.3707,-0.2885 0.7951,-0.5008 1.2487,-0.6242l1.0751 -1.386 1.3521 -1.7341 0.0694 -0.0694c-0.0694,0 -0.1387,-0.0347 -0.2082,-0.0347 -2.3568,-0.3191 -4.7092,0.6145 -6.2071,2.4611 -0.1122,0.1207 -0.2168,0.2484 -0.3122,0.3815 -2.67,3.399 -1.9764,7.5249 1.0058,9.8487 2.9821,2.3238 7.1436,2.0117 9.8137,-1.3873 0.104,-0.104 0.1735,-0.2428 0.2775,-0.3468 1.6436,-2.1615 1.835,-5.0985 0.4854,-7.4555 -0.1143,-0.2151 -0.2421,-0.4232 -0.3815,-0.6242 -0.4074,-0.5342 -0.8724,-1.0239 -1.3872,-1.4554 -0.2429,-0.1387 -0.4164,-0.2774 -0.5898,-0.3815z"/>
   <path class="fil0" d="M103.9626 9.9874l1.144 1.0738c0.9711,0.9018 1.4567,1.3527 1.2486,2.0463 -0.1388,0.555 -0.8325,0.8324 -1.8035,0.555 -1.3532,-0.4842 -2.5028,-1.4124 -3.2591,-2.636l-0.9711 3.3296c1.0555,0.9864 2.3442,1.6911 3.7452,2.0463 2.5314,0.7284 4.9934,-0.1734 5.7215,-2.636 0.5551,-1.9422 -0.4855,-3.2587 -1.9075,-4.5768l-1.3173 -1.2833c-0.6242,-0.5896 -0.7631,-0.971 -0.6242,-1.422 0.1387,-0.555 0.7976,-0.7631 1.6295,-0.555 1.2558,0.4163 2.3554,1.2015 3.1557,2.2545l0.8671 -3.0175c-0.9706,-0.881 -2.1346,-1.5219 -3.3985,-1.8715 -2.7394,-0.7977 -4.9587,0.4162 -5.5483,2.5305 -0.5201,1.4914 -0.0693,2.8788 1.318,4.162z"/>
   <polygon class="fil0" points="114.9203,20.3203 117.9724,21.7423 122.3756,12.2404 126.1562,14.0093 127.3002,11.5134 116.7238,6.5884 115.5794,9.0856 119.3588,10.8198 "/>
   <path class="fil0" d="M123.4508 22.7828l-0.7971 1.1792 2.2887 1.526 0.9709 -1.0752 1.4562 -0.7284 2.0463 1.3527 2.0458 1.3526 -0.1388 1.6287 -0.6242 1.2834 2.2886 1.5607 0.7977 -1.1792 3.0169 -12.1711 -1.5602 -1.0752 -1.2486 -0.8324 -0.3469 -0.2428 -1.0399 -0.6937 -0.4509 0.659 0.3468 0.9018 -9.0512 6.5538zm9.8831 -3.571l0 0 -1.2133 4.5421 -1.2832 -0.8671 -1.2833 -0.8671 3.7797 -2.8079z"/>
   <polygon class="fil0" points="140.824,23.8927 143.876,26.7699 136.7323,34.4336 139.1952,36.7227 146.3385,29.059 149.3893,31.8684 151.2623,29.8915 142.6967,21.9157 "/>
   <polygon class="fil0" points="150.4645,41.1954 153.4125,44.976 155.5629,43.3111 152.6148,39.5321 154.5225,38.0407 157.816,42.2707 160.4171,41.1621 155.008,34.2269 155.0426,34.1922 154.0023,32.8743 153.4125,33.3598 153.4473,34.643 144.2229,41.8891 149.8748,49.138 152.0252,47.4385 148.4195,42.7909 "/>
   <path class="fil0" d="M160.6947 96.2988c0,21.0429 -8.3587,41.2236 -23.2389,56.1028 -14.8796,14.8796 -35.0605,23.2389 -56.1029,23.2389 -21.0429,0 -41.2238,-8.3592 -56.1029,-23.2389 -14.8796,-14.8792 -23.2388,-35.0599 -23.2388,-56.1028 0,-21.0425 8.3591,-41.2231 23.2388,-56.1036 14.8791,-14.8791 35.06,-23.2379 56.1029,-23.2379 21.0424,0.0014 41.2221,8.3614 56.1014,23.2406 14.8788,14.8791 23.2389,35.0588 23.2403,56.1008z"/>
   <path class="fil1" d="M133.2298 44.3863c-13.7567,-13.7665 -32.42,-21.5036 -51.8828,-21.5077 -19.4622,-0.0028 -38.1289,7.7274 -51.8912,21.4897 -13.7616,13.761 -21.4915,32.4276 -21.4877,51.8904 0.0037,19.4621 7.7403,38.1255 21.508,51.8828 13.7567,13.7672 32.42,21.5036 51.8824,21.5075 19.4627,0.0037 38.1292,-7.7264 51.891,-21.488 13.762,-13.7622 21.492,-32.4289 21.4879,-51.8909 -0.0027,-19.4628 -7.7399,-38.1256 -21.5076,-51.8838zm-100.9449 2.8094l0 0c15.4378,-15.4008 37.2146,-22.6524 58.8031,-19.5822 21.589,3.0688 40.4814,16.1028 51.0151,35.1952 10.5353,19.0928 11.4871,42.0252 2.5706,61.9255 -8.4269,-2.8436 -16.7146,-6.0339 -24.8288,-9.6405 -1.0752,-0.4855 -2.1504,-0.9364 -3.1903,-1.4215l-3.1557 -1.4913 -1.5955 -0.763 -1.5601 -0.7626 -3.121 -1.5607c-1.0404,-0.5202 -2.081,-1.0752 -3.0861,-1.6296l-1.5608 -0.8324c-0.5202,-0.2774 -1.0057,-0.5549 -1.5254,-0.8323l-3.0517 -1.6989 -3.0175 -1.7689c-8.0736,-4.7043 -15.803,-9.9773 -23.1294,-15.778 -3.6411,-2.9128 -7.213,-5.9299 -10.5768,-9.1549 -1.6989,-1.5949 -3.329,-3.2596 -4.9238,-4.9587 -0.3816,-0.4162 -0.7976,-0.8323 -1.1792,-1.2833 -0.3816,-0.4162 -0.7632,-0.867 -1.144,-1.3173 -0.3815,-0.4509 -0.7631,-0.8671 -1.1098,-1.3179 0,-0.0347 -0.0348,-0.0347 -0.0348,-0.0694 -0.1387,-5.0974 -0.2081,-8.1485 -0.2081,-8.1485l-3.4677 -0.8323 0 4.6459 -2.9477 0 0 -4.8886 -3.7106 0.9018 0.0347 1.7677 -1.7335 0.9365c0.0346,1.4562 0.0694,3.3637 0.104,5.6176 -1.4222,2.4619 -16.7841,29.0251 -28.2969,37.2086 -0.4286,-3.1372 -0.6491,-6.2998 -0.6589,-9.4668 -0.0797,-18.3919 7.2294,-36.0455 20.2866,-48.9991zm91.1659 83.1214l0 0 -7.1431 0.2428 -5.8258 -15.0847 1.1441 0.555 3.1902 1.595c1.0752,0.5203 2.1504,1.0058 3.2252,1.5261 0.3122,0.1387 0.6242,0.2774 0.9018,0.4162l4.5076 10.7497zm-1.7335 -9.4669l0 0c2.8783,1.3179 5.791,2.5659 8.7038,3.7798l2.3926 5.3402 -7.1779 0.2428 -3.9186 -9.3628zm-7.6294 9.779l0 0 -7.3165 0.2428 -7.5945 -21.5693c0.4855,0.2774 0.9712,0.555 1.4567,0.8324l1.5603 0.8665c1.0404,0.5897 2.081,1.1445 3.1208,1.7342l2.3927 1.2827 6.3805 16.6107zm-9.432 0.3121l0 0 -6.519 0.2081 -9.5015 -28.3661c1.4563,0.9365 2.9129,1.8729 4.4037,2.7742l3.0517 1.8728 0.4162 0.2428 8.149 23.2682zm-8.7039 0.3121l0 0 -6.8315 0.2429 -11.2699 -36.1687c2.6006,1.9423 5.2707,3.8146 7.9409,5.6527l10.1605 30.2731zm-8.9813 0.3122l0 0 -6.5887 0.2081 -13.4197 -45.1846c0.9359,0.8323 1.907,1.6301 2.8783,2.4273 1.6989,1.422 3.3984,2.7746 5.1666,4.1267l11.9637 38.4225zm-8.7039 0.2774l0 0 -7.2823 0.2428 -16.021 -57.183c1.3874,1.5608 2.8436,3.0516 4.3348,4.543 1.5603,1.5601 3.1556,3.0516 4.7506,4.5425l14.2179 47.8547zm-9.3975 0.3121l0 0 -6.3113 0.2081 -8.8078 -33.5679c-0.2774,-8.6693 -0.5203,-16.6448 -0.6937,-23.0948l15.8128 56.4546zm-8.4263 0.2774l0 0 -5.4447 0.1734c-0.3468,-7.9761 -0.6585,-16.3679 -0.936,-24.5173l6.3807 24.3439zm76.9833 4.8199l0 0c-0.4857,0.6243 -0.9365,1.2834 -1.4568,1.9071l-80.6938 -1.5949 -0.0348 -0.7631 82.1853 0.4508zm-2.3927 -7.317l0 0 -1.8382 -4.1609c3.0516,1.2481 6.1372,2.4273 9.224,3.5372 -0.0694,0.104 -0.1386,0.2428 -0.208,0.3468l-7.1779 0.2769zm-85.861 -50.7672l0 0 0 4.2652 -3.2252 0 0 3.9532 3.2252 0 0 4.2656 -3.2252 0 0 3.9527 3.2252 0 0 8.0106 -3.2252 0 0 3.9533 3.2252 0 0 8.253 -3.2252 0 0 3.9534 3.2252 0 0 12.9688 -2.9823 0.104 0 -60.3727 2.9477 0 0 2.6701 -3.2252 0 0 3.9533 3.2597 0 0 0.0693zm-31.1402 45.6005l0 0 9.0507 -30.4811c4.4085,-5.92 8.3945,-12.1425 11.9288,-18.6218l-16.2283 57.9108c-1.7999,-2.8142 -3.3877,-5.7586 -4.7512,-8.8079zm-1.2828 -2.9822l0 0c-1.6046,-4.0699 -2.8126,-8.2856 -3.6064,-12.588 3.8363,-3.1529 7.3448,-6.6846 10.4722,-10.542l-6.8658 23.13zm24.17 -45.3236l0 0c0,6.1384 -0.1041,13.5244 -0.2429,21.3964l-9.3281 35.5438 -6.4501 0.2081 16.0211 -57.1483zm-0.4509 30.3083l0 0c-0.2428,8.8079 -0.555,17.8934 -1.0059,26.3544l-5.9644 0.2082 6.9703 -26.5626zm-12.3798 34.053l0 0 10.9231 0.3816c-0.2075,3.3637 -0.4503,6.554 -0.7278,9.5362 -2.1096,-1.6787 -4.1239,-3.4731 -6.0337,-5.3753 -1.4569,-1.4562 -2.8436,-2.9822 -4.1616,-4.5424zm53.2643 24.8636l0 0c-8.5103,0.0206 -16.9513,-1.5314 -24.8981,-4.5776 -0.3122,-4.7505 -0.6242,-10.4376 -0.9366,-16.6448l-6.3459 -2.1504 0 15.5008c-1.0053,-0.5197 -2.0112,-1.0746 -2.9823,-1.6643l0 -14.703 2.9823 0.104 0 0.104 3.2251 0 5.8604 0.2081 73.065 2.6007c-0.2774,0.3121 -0.5895,0.5897 -0.8669,0.9012 -13.0009,13.054 -30.6796,20.3701 -49.103,20.3212z"/>
   <polygon class="fil0" points="104.9684,180.8068 104.1707,176.7151 99.7665,177.5822 94.7727,178.5533 90.3695,179.4204 91.1666,183.4774 95.5363,182.6455 97.7896,194.1576 93.4205,195.0247 94.1837,199.0821 98.6226,198.2497 103.6157,197.2791 107.9848,196.412 107.1877,192.3199 102.8175,193.1871 100.5642,181.6739 "/>
   <path class="fil0" d="M130.4559 175.9527c2.4272,5.2013 0.5201,11.27 -5.4095,14.0093 -5.9298,2.7742 -11.7903,0.3122 -14.2182,-4.8891 -2.4272,-5.2021 -0.5197,-11.2359 5.4101,-14.01 5.9299,-2.7394 11.7903,-0.3121 14.2176,4.8898zm-4.6811 2.1845l0 0c-1.4915,-3.1903 -4.5778,-4.5429 -7.6986,-3.0862 -3.1559,1.4562 -4.0577,4.6811 -2.5661,7.8716 1.4909,3.1556 4.5429,4.5776 7.6986,3.1209 3.121,-1.4562 4.0568,-4.7507 2.5661,-7.9063z"/>
   <path class="fil0" d="M144.9512 159.4809c-2.4971,-2.9128 -6.4152,-2.7048 -9.3627,-0.1734l-5.5489 4.7505 -0.8665 0.7284 -1.0404 0.9017 0.763 0.8671 1.6989 -0.1387 11.6168 13.6277 3.8497 -3.2943 -4.7515 -5.5482 1.1098 -0.9365 8.5655 2.2891 4.6476 -3.9533 -9.918 -2.3232c1.1029,-2.2186 0.8046,-4.8784 -0.7632,-6.7968zm-4.5088 7.1089l0 0 -1.8024 1.5255 -2.9476 -3.4331 1.8724 -1.5948c1.0752,-0.9018 2.4267,-1.11 3.3979,0.0347 1.0058,1.1093 0.6243,2.4619 -0.5203,3.4677z"/>
   <path class="fil0" d="M163.7122 158.7178c-1.2473,1.8047 -2.9453,3.2509 -4.9251,4.1961l-4.1953 -3.1556c2.1504,-0.3972 4.0968,-1.524 5.5134,-3.1903 0.9364,-1.2486 0.8671,-2.358 0.208,-2.8782 -0.8669,-0.659 -1.7687,-0.2429 -3.571,0.6589l-2.1504 1.0053c-2.6011,1.2486 -4.821,1.1445 -6.6924,-0.2774 -2.6707,-2.0112 -3.1562,-5.7912 -0.5551,-9.259 1.1807,-1.6083 2.7262,-2.9148 4.5075,-3.814l3.8151 2.8782c-1.9007,0.5951 -3.5946,1.7125 -4.8903,3.2251 -0.763,1.0052 -0.7977,2.0457 -0.104,2.5659 0.5549,0.4163 1.1792,0.4163 2.3585,-0.1387l2.5319 -1.2139c2.6346,-1.2827 5.0971,-2.0457 7.525,-0.2081 3.12,2.4274 3.0161,6.4501 0.6242,9.6057z"/>
   <g>
    <path class="fil0" d="M85.549 185.8353c0.1389,-3.8489 -2.9128,-6.3114 -6.7967,-6.4496l-7.317 -0.2428 -1.1095 -0.0347 -1.3873 -0.0347 -0.0346 1.1786 1.3526 1.0405 -0.6242 17.8934 5.0626 0.1735 0.2427 -7.3166 1.4569 0.0347 4.7852 7.49 6.103 0.2081 -5.7563 -8.3917c2.3118,-0.9018 3.8841,-3.0705 4.0227,-5.5482l0 -0.0005zm-8.1148 2.1851l0 0 -2.3579 -0.0695 0.1734 -4.5082 2.4619 0.0694c1.4221,0.0347 2.5314,0.7977 2.4968,2.3233 -0.0695,1.4913 -1.2481,2.2197 -2.7742,2.1851z"/>
   </g>
   <path class="fil0" d="M63.0088 184.0324c1.0746,-3.6761 -1.2485,-6.8664 -4.9592,-7.941l-7.0043 -2.081 -1.0752 -0.3121 -1.318 -0.3816 -0.3464 1.1099 1.0401 1.3527 -5.0975 17.1649 4.8547 1.4221 2.081 -7.0049 1.4214 0.4163 2.7394 8.4263 5.8604 1.7342 -3.4671 -9.5709c2.4619,-0.2688 4.5315,-1.9706 5.2707,-4.3348zm-8.3917 0.104l0 0 -2.2544 -0.659 1.2834 -4.3344 2.358 0.6931c1.3526,0.4162 2.2538,1.422 1.8381,2.8784 -0.4508,1.422 -1.7687,1.8382 -3.225,1.422z"/>
   <path class="fil0" d="M39.1505 167.9419l-1.7684 -1.04 -0.6936 -0.4162 -1.4561 -0.8671 -0.5898 1.0058 0.4856 1.1094 -13.1427 10.8194 -1.1099 1.8724 3.6065 2.1157 1.3525 -1.7342 2.1498 -1.2486 3.1905 1.8729 3.1903 1.8724 -0.0695 2.4625 -0.8323 2.0112 3.6065 2.115 1.1098 -1.8722 3.4678 -18.7258 -2.4972 -1.3526zm-5.9644 10.1258l0 0 -2.0111 -1.1792 5.4441 -4.6465 -1.4215 7.0049 -2.0116 -1.1792z"/>
   <polygon class="fil0" points="27.1522,160.1745 25.9036,158.8218 25.0371,159.619 25.2106,161.0411 14.3915,165.7227 21.3959,153.8975 19.2113,151.5052 6.901,157.5392 13.4897,145.2975 9.7104,141.1365 9.224,140.6163 8.3571,141.3794 8.5998,143.3211 -0,160.2438 3.4673,164.0233 11.7208,160.5907 7.5946,168.4968 11.0276,172.2768 30.8981,164.3013 "/>
  </g>
 </g>
</svg>
